<svg width="20" height="20" viewBox="0 0 20 20" fill="none" xmlns="http://www.w3.org/2000/svg">
<rect width="20" height="20" rx="10" fill="#0A66C2"/>
<g clip-path="url(#clip0_56_1774)">
<path d="M4.16663 5.72376C4.16663 5.34837 4.29801 5.03869 4.56077 4.7947C4.82353 4.5507 5.16513 4.42871 5.58554 4.42871C5.99846 4.42871 6.33254 4.54882 6.5878 4.78907C6.85056 5.03682 6.98194 5.35963 6.98194 5.75754C6.98194 6.1179 6.85432 6.41819 6.59906 6.65844C6.3363 6.90619 5.99095 7.03006 5.56302 7.03006H5.55176C5.13884 7.03006 4.80477 6.90619 4.54951 6.65844C4.29425 6.41069 4.16663 6.09913 4.16663 5.72376ZM4.31302 15.5774V8.05484H6.81302V15.5774H4.31302ZM8.19816 15.5774H10.6982V11.3769C10.6982 11.1141 10.7282 10.9114 10.7882 10.7688C10.8933 10.5135 11.0529 10.2977 11.2669 10.1213C11.4808 9.94485 11.7492 9.85664 12.072 9.85664C12.9129 9.85664 13.3333 10.4235 13.3333 11.5571V15.5774H15.8333V11.2643C15.8333 10.1532 15.5705 9.31047 15.045 8.73614C14.5195 8.16182 13.825 7.87466 12.9617 7.87466C11.9932 7.87466 11.2387 8.29132 10.6982 9.12466V9.14718H10.6869L10.6982 9.12466V8.05484H8.19816C8.21317 8.29507 8.22068 9.04207 8.22068 10.2958C8.22068 11.5496 8.21317 13.3101 8.19816 15.5774Z" fill="#F6F9FF"/>
</g>
<defs>
<clipPath id="clip0_56_1774">
<rect x="4.16663" y="4.16699" width="11.6667" height="11.6667" fill="white"/>
</clipPath>
</defs>
</svg>
