<svg width="173" height="173" viewBox="0 0 173 173" fill="none" xmlns="http://www.w3.org/2000/svg">
<path d="M94.5266 3.55661L94.4501 4.875L91.8275 4.72288L91.3325 13.2569L89.7164 13.1632L90.2114 4.62914L87.5747 4.4762L87.6511 3.15781L94.5266 3.55661Z" fill="#FFFCF6"/>
<path d="M99.0789 5.50982L98.5878 8.36468L101.946 8.94249L101.723 10.244L98.3639 9.66616L97.8511 12.647L101.63 13.297L101.406 14.5985L96.0318 13.674L97.7075 3.93388L103.081 4.85837L102.857 6.15985L99.0789 5.50982Z" fill="#FFFCF6"/>
<path d="M105.041 10.2027C105.335 9.28288 105.81 8.52543 106.467 7.93035C107.134 7.33815 107.897 6.9558 108.757 6.78329C109.629 6.60465 110.502 6.65501 111.377 6.93439C112.378 7.2541 113.187 7.78579 113.804 8.52947C114.433 9.26701 114.779 10.1428 114.843 11.157L112.99 10.5651C112.905 9.99133 112.685 9.51359 112.33 9.13185C111.974 8.75012 111.513 8.46853 110.945 8.28708C110.322 8.08834 109.723 8.05099 109.147 8.17501C108.571 8.29903 108.059 8.57792 107.613 9.01167C107.175 9.4483 106.845 10.0138 106.624 10.7082C106.402 11.4026 106.343 12.0545 106.446 12.6639C106.559 13.2762 106.812 13.8044 107.207 14.2486C107.605 14.6836 108.115 15.0005 108.737 15.1993C109.305 15.3807 109.845 15.4188 110.355 15.3136C110.866 15.2084 111.322 14.9467 111.724 14.5284L113.577 15.1203C112.937 15.9098 112.147 16.4227 111.207 16.6591C110.276 16.8984 109.31 16.8581 108.309 16.5384C107.426 16.2562 106.683 15.7955 106.082 15.1564C105.484 14.5083 105.086 13.7499 104.886 12.8812C104.696 12.0154 104.747 11.1225 105.041 10.2027Z" fill="#FFFCF6"/>
<path d="M126.964 13.7314L122.523 22.5445L121.077 21.816L123.02 17.961L118.873 15.8713L116.931 19.7262L115.485 18.9976L119.927 10.1846L121.372 10.9131L119.468 14.692L123.614 16.7817L125.519 13.0029L126.964 13.7314Z" fill="#FFFCF6"/>
<path d="M131.714 28.7288L130.393 27.7932L130.678 18.964L126.419 24.9783L125.097 24.0427L130.809 15.9773L132.131 16.9129L131.854 25.7305L136.105 19.7278L137.426 20.6634L131.714 28.7288Z" fill="#FFFCF6"/>
<path d="M137.187 33.7807C136.531 33.1382 136.074 32.3931 135.818 31.5456C135.575 30.698 135.559 29.8412 135.771 28.9755C135.997 28.1096 136.447 27.3317 137.123 26.6419C137.798 25.9521 138.563 25.4889 139.418 25.2525C140.279 25.0226 141.133 25.0238 141.978 25.256C142.838 25.4881 143.595 25.9254 144.251 26.568C144.914 27.2171 145.367 27.9656 145.61 28.8132C145.867 29.6607 145.886 30.5141 145.667 31.3732C145.448 32.2323 145.001 33.0068 144.325 33.6966C143.65 34.3865 142.881 34.853 142.02 35.0962C141.166 35.3327 140.309 35.3349 139.45 35.1028C138.604 34.8706 137.849 34.4299 137.187 33.7807ZM138.17 32.7764C138.637 33.2335 139.156 33.536 139.726 33.6841C140.303 33.8254 140.885 33.7992 141.473 33.6057C142.073 33.4121 142.628 33.0548 143.138 32.5341C143.648 32.0133 143.991 31.4542 144.165 30.8566C144.347 30.2656 144.357 29.6864 144.198 29.1191C144.038 28.5517 143.724 28.0395 143.258 27.5824C142.791 27.1253 142.273 26.8228 141.702 26.6747C141.131 26.5267 140.549 26.5461 139.955 26.733C139.368 26.9265 138.82 27.2837 138.31 27.8044C137.8 28.3252 137.451 28.8844 137.263 29.4822C137.088 30.0798 137.077 30.6656 137.231 31.2398C137.39 31.8071 137.704 32.3193 138.17 32.7764Z" fill="#FFFCF6"/>
<path d="M144.574 39.8216L146.636 42.4454L145.609 43.2526L142.547 39.3559L150.307 33.2582L151.307 34.5311L144.574 39.8216Z" fill="#FFFCF6"/>
<path d="M149.02 48.6714C148.552 47.8819 148.302 47.0446 148.272 46.1596C148.255 45.278 148.46 44.446 148.887 43.6638C149.328 42.8849 149.963 42.249 150.793 41.756C151.624 41.263 152.482 41.012 153.368 41.0031C154.26 41.0023 155.084 41.2228 155.842 41.6646C156.613 42.1098 157.233 42.7271 157.702 43.5167C158.175 44.3144 158.421 45.1541 158.438 46.0357C158.468 46.9207 158.267 47.7502 157.834 48.5243C157.402 49.2984 156.771 49.9319 155.941 50.4249C155.111 50.9179 154.248 51.1713 153.353 51.185C152.467 51.194 151.638 50.9759 150.868 50.5307C150.11 50.0889 149.494 49.4691 149.02 48.6714ZM150.229 47.9537C150.563 48.5153 150.986 48.941 151.499 49.2307C152.021 49.5156 152.59 49.64 153.207 49.6038C153.837 49.571 154.466 49.3685 155.093 48.9963C155.719 48.6242 156.194 48.1718 156.516 47.6391C156.843 47.1146 157.002 46.5576 156.994 45.9682C156.985 45.3788 156.814 44.8033 156.481 44.2417C156.147 43.68 155.724 43.2544 155.21 42.9646C154.697 42.6749 154.129 42.5441 153.507 42.5721C152.89 42.6082 152.268 42.8123 151.642 43.1845C151.015 43.5567 150.534 44.0074 150.199 44.5368C149.876 45.0695 149.715 45.6329 149.716 46.2271C149.725 46.8165 149.896 47.392 150.229 47.9537Z" fill="#FFFCF6"/>
<path d="M162.049 59.6138C162.416 59.1984 162.633 58.7345 162.7 58.222C162.775 57.7061 162.705 57.1699 162.491 56.6133C162.256 56.0037 161.91 55.5131 161.453 55.1415C160.995 54.7698 160.462 54.544 159.853 54.464C159.247 54.3929 158.613 54.4848 157.951 54.7399C157.288 54.995 156.752 55.3537 156.341 55.816C155.943 56.2838 155.699 56.8089 155.609 57.3914C155.519 57.9739 155.591 58.5699 155.825 59.1795C156.142 60.0011 156.628 60.5797 157.285 60.9152C157.942 61.2508 158.685 61.3246 159.516 61.1368L158.184 57.678L159.39 57.2138L161.344 62.2892L160.165 62.7433C159.412 62.9216 158.655 62.9188 157.894 62.7349C157.137 62.5597 156.45 62.2106 155.832 61.6875C155.227 61.1698 154.77 60.509 154.461 59.705C154.127 58.8392 154.022 57.972 154.144 57.1033C154.275 56.2313 154.616 55.4455 155.168 54.7459C155.724 54.0552 156.453 53.5364 157.354 53.1894C158.255 52.8425 159.143 52.7389 160.019 52.8786C160.898 53.0272 161.673 53.3828 162.347 53.9453C163.032 54.5133 163.539 55.2257 163.869 56.0827C164.247 57.0633 164.339 58.0271 164.146 58.9739C163.964 59.9262 163.498 60.7446 162.748 61.4293L162.049 59.6138Z" fill="#FFFCF6"/>
<path d="M168.253 71.9209L161.401 70.1081L157.909 70.8899L157.556 69.3102L161.048 68.5284L166.47 63.9532L166.864 65.713L162.638 69.0018L167.862 70.1749L168.253 71.9209Z" fill="#FFFCF6"/>
<path d="M167.598 95.4042L164.724 95.0418L164.298 98.423L162.988 98.2578L163.414 94.8766L160.413 94.4982L159.934 98.3021L158.623 98.1369L159.306 92.7269L169.111 93.9633L168.429 99.3733L167.119 99.2081L167.598 95.4042Z" fill="#FFFCF6"/>
<path d="M156.18 108.58L156.59 107.014L164.953 104.168L157.823 102.302L158.233 100.736L167.794 103.238L167.384 104.804L159.035 107.654L166.151 109.516L165.741 111.082L156.18 108.58Z" fill="#FFFCF6"/>
<path d="M160.98 123.037L153.366 115.746L154.104 114.022L164.64 114.487L163.959 116.079L155.262 115.538L161.65 121.47L160.98 123.037Z" fill="#FFFCF6"/>
<path d="M158.717 127.075L150.075 122.308L150.857 120.891L159.499 125.657L158.717 127.075Z" fill="#FFFCF6"/>
<path d="M146.095 128.595L150.638 128.928L151.331 127.906L148.062 125.692L148.97 124.351L157.141 129.887L155.23 132.708C154.805 133.335 154.337 133.79 153.825 134.072C153.308 134.362 152.794 134.489 152.282 134.451C151.765 134.421 151.28 134.252 150.825 133.944C150.292 133.583 149.912 133.097 149.686 132.486C149.462 131.888 149.489 131.215 149.768 130.466L145.012 130.194L146.095 128.595ZM152.401 128.63L151.397 130.112C151.057 130.613 150.928 131.074 151.009 131.495C151.084 131.924 151.334 132.281 151.757 132.568C152.18 132.855 152.594 132.952 152.999 132.861C153.412 132.775 153.791 132.477 154.136 131.967L155.14 130.486L152.401 128.63Z" fill="#FFFCF6"/>
<path d="M140.389 135.501C141.011 134.825 141.742 134.346 142.581 134.064C143.421 133.795 144.277 133.753 145.148 133.938C146.021 134.137 146.812 134.563 147.522 135.217C148.233 135.871 148.719 136.622 148.982 137.469C149.238 138.322 149.263 139.176 149.057 140.028C148.851 140.894 148.438 141.665 147.815 142.34C147.187 143.023 146.453 143.499 145.613 143.768C144.774 144.05 143.921 144.095 143.056 143.903C142.191 143.711 141.403 143.288 140.692 142.633C139.982 141.979 139.492 141.226 139.223 140.372C138.96 139.526 138.932 138.669 139.137 137.803C139.343 136.951 139.76 136.183 140.389 135.501ZM141.423 136.453C140.981 136.934 140.694 137.461 140.564 138.036C140.44 138.617 140.484 139.198 140.696 139.779C140.908 140.373 141.282 140.918 141.818 141.411C142.354 141.905 142.924 142.23 143.526 142.386C144.123 142.549 144.702 142.542 145.264 142.365C145.826 142.188 146.328 141.859 146.771 141.378C147.213 140.898 147.5 140.37 147.63 139.795C147.761 139.221 147.724 138.639 147.518 138.051C147.307 137.471 146.933 136.933 146.397 136.439C145.861 135.946 145.291 135.614 144.688 135.445C144.085 135.288 143.499 135.296 142.93 135.467C142.368 135.644 141.866 135.973 141.423 136.453Z" fill="#FFFCF6"/>
<path d="M128.625 146.165L129.896 145.163L138.284 147.932L133.72 142.146L134.99 141.143L141.112 148.903L139.841 149.905L131.461 147.147L136.017 152.922L134.746 153.925L128.625 146.165Z" fill="#FFFCF6"/>
<path d="M121.842 161.567L117.105 152.909L118.525 152.132L121.77 158.062L121.166 150.687L122.15 150.149L128.048 154.626L124.804 148.697L126.224 147.92L130.961 156.577L129.429 157.416L122.674 152.29L123.362 160.735L121.842 161.567Z" fill="#FFFCF6"/>
<path d="M115.711 162.623L114.711 159.905L111.513 161.082L111.057 159.842L114.255 158.665L113.21 155.827L109.612 157.151L109.156 155.912L114.273 154.028L117.687 163.303L112.57 165.187L112.113 163.947L115.711 162.623Z" fill="#FFFCF6"/>
<path d="M98.7137 158.55L100.293 158.195L106.661 164.318L105.045 157.127L106.625 156.772L108.792 166.415L107.213 166.77L100.847 160.661L102.461 167.838L100.881 168.193L98.7137 158.55Z" fill="#FFFCF6"/>
<path d="M90.4156 169.328L90.2992 168.013L92.916 167.781L92.1628 159.266L93.7753 159.123L94.5285 167.639L97.1594 167.406L97.2758 168.721L90.4156 169.328Z" fill="#FFFCF6"/>
<path d="M62.3553 165.85L65.1066 156.372L66.6613 156.823L63.9099 166.301L62.3553 165.85Z" fill="#FFFCF6"/>
<path d="M55.3249 152.731L56.8254 153.339L58.5742 161.998L61.34 155.166L62.8405 155.774L59.1315 164.935L57.631 164.327L55.8768 155.681L53.1164 162.499L51.6159 161.892L55.3249 152.731Z" fill="#FFFCF6"/>
<path d="M45.6992 147.31L47.0909 148.137L47.5136 156.96L51.2781 150.624L52.6698 151.451L47.6215 159.948L46.2298 159.121L45.7998 150.309L42.0425 156.633L40.6509 155.806L45.6992 147.31Z" fill="#FFFCF6"/>
<path d="M39.847 142.714C40.5522 143.303 41.0664 144.009 41.3896 144.833C41.6995 145.659 41.7834 146.511 41.6412 147.391C41.4856 148.273 41.0986 149.084 40.4801 149.825C39.8616 150.567 39.1359 151.09 38.3031 151.393C37.463 151.691 36.6121 151.758 35.7503 151.594C34.8753 151.431 34.0852 151.056 33.38 150.468C32.6676 149.873 32.1564 149.163 31.8465 148.338C31.5233 147.513 31.4364 146.664 31.5859 145.79C31.7354 144.917 32.1193 144.109 32.7378 143.367C33.3564 142.626 34.0851 142.1 34.924 141.788C35.7568 141.485 36.6107 141.414 37.4858 141.577C38.3475 141.741 39.1346 142.12 39.847 142.714ZM38.9465 143.794C38.4449 143.376 37.9039 143.115 37.3233 143.013C36.7367 142.918 36.1585 142.991 35.5887 143.231C35.0056 143.472 34.4806 143.872 34.0137 144.432C33.5468 144.991 33.2502 145.576 33.1238 146.186C32.9902 146.789 33.0257 147.367 33.2303 147.92C33.4349 148.473 33.788 148.959 34.2896 149.377C34.7912 149.795 35.3323 150.056 35.9128 150.158C36.4934 150.26 37.0722 150.194 37.6492 149.96C38.219 149.721 38.7373 149.321 39.2043 148.761C39.6712 148.201 39.9745 147.616 40.1141 147.005C40.2405 146.396 40.2044 145.811 40.0058 145.251C39.8013 144.698 39.4482 144.212 38.9465 143.794Z" fill="#FFFCF6"/>
<path d="M20.9327 137.709L30.7963 133.989L32.0322 135.398L27.0651 144.702L25.9229 143.4L30.1651 135.789L22.0562 138.99L20.9327 137.709Z" fill="#FFFCF6"/>
<path d="M22.166 125.606L24.4157 129.072L26.4936 128.57L27.4137 129.987L17.1986 132.402L16.1781 130.83L22.543 122.483L23.4708 123.913L22.166 125.606ZM21.3057 126.706L18.3321 130.549L23.0606 129.41L21.3057 126.706Z" fill="#FFFCF6"/>
<path d="M9.89307 119.034L11.0849 118.465L12.2165 120.836L19.9311 117.153L20.6284 118.614L12.9138 122.297L14.0515 124.68L12.8597 125.249L9.89307 119.034Z" fill="#FFFCF6"/>
<path d="M8.29221 114.831L17.5268 111.349L18.0978 112.864L8.86325 116.346L8.29221 114.831Z" fill="#FFFCF6"/>
<path d="M15.5811 104.759C15.8074 105.649 15.8098 106.522 15.5883 107.38C15.3553 108.23 14.9232 108.97 14.2921 109.599C13.6494 110.222 12.8602 110.652 11.9244 110.89C10.9886 111.128 10.0943 111.126 9.24145 110.884C8.38631 110.633 7.65781 110.188 7.05595 109.55C6.44258 108.905 6.02272 108.137 5.79639 107.247C5.56771 106.348 5.56989 105.473 5.80292 104.623C6.02444 103.766 6.45193 103.027 7.08541 102.407C7.71888 101.786 8.50352 101.357 9.43933 101.119C10.3751 100.881 11.274 100.882 12.136 101.122C12.9888 101.364 13.7219 101.808 14.3353 102.453C14.9371 103.091 15.3524 103.86 15.5811 104.759ZM14.2187 105.105C14.0577 104.472 13.7719 103.944 13.3615 103.521C12.9419 103.1 12.4311 102.82 11.829 102.68C11.2153 102.533 10.5553 102.55 9.84884 102.729C9.14239 102.909 8.55928 103.209 8.09949 103.629C7.63736 104.039 7.32709 104.528 7.16868 105.096C7.01027 105.664 7.01157 106.264 7.17257 106.897C7.33358 107.53 7.61929 108.058 8.0297 108.482C8.44012 108.905 8.94755 109.191 9.55202 109.34C10.1541 109.48 10.8084 109.46 11.5149 109.28C12.2213 109.1 12.8102 108.804 13.2815 108.391C13.7413 107.971 14.055 107.477 14.2226 106.906C14.381 106.339 14.3797 105.738 14.2187 105.105Z" fill="#FFFCF6"/>
<path d="M13.0833 89.1036L13.228 90.7159L6.32315 96.2259L13.6634 95.567L13.8082 97.1793L3.96453 98.0629L3.81982 96.4505L10.7106 90.9419L3.38441 91.5994L3.23969 89.9871L13.0833 89.1036Z" fill="#FFFCF6"/>
<path d="M17.767 60.5492L13.2895 61.3848L12.8802 62.5504L16.6047 63.8585L16.0683 65.3858L6.7569 62.1156L7.8862 58.9001C8.13715 58.1856 8.47394 57.6266 8.89657 57.2232C9.32233 56.8108 9.78745 56.5578 10.2919 56.4641C10.7996 56.3614 11.3124 56.4011 11.8305 56.583C12.4378 56.7963 12.9289 57.1694 13.3036 57.7024C13.6725 58.2232 13.8176 58.8813 13.739 59.6764L18.4069 58.7272L17.767 60.5492ZM11.661 62.1222L12.2539 60.4341C12.4546 59.8624 12.4623 59.3835 12.2769 58.9973C12.0946 58.6022 11.7622 58.3199 11.2799 58.1505C10.7976 57.9811 10.3723 57.9923 10.0039 58.184C9.62667 58.3726 9.33609 58.7571 9.13219 59.3377L8.53931 61.0258L11.661 62.1222Z" fill="#FFFCF6"/>
<path d="M12.4356 51.235L15.0332 52.5171L16.5416 49.4611L17.7258 50.0456L16.2174 53.1016L18.9297 54.4403L20.6266 51.0023L21.8108 51.5868L19.3974 56.4764L10.5349 52.1021L12.9484 47.2125L14.1326 47.797L12.4356 51.235Z" fill="#FFFCF6"/>
<path d="M22.8376 47.2816L24.61 44.4542L25.7169 45.148L23.0848 49.3471L14.7228 44.1055L15.5825 42.7339L22.8376 47.2816Z" fill="#FFFCF6"/>
<path d="M19.7681 36.579L27.7284 42.4126L26.7716 43.7183L18.8112 37.8848L19.7681 36.579Z" fill="#FFFCF6"/>
<path d="M31.5569 34.7068L28.7993 37.7843L29.8272 39.6587L28.6996 40.9172L23.6985 31.6885L24.9494 30.2925L34.6695 34.2546L33.5324 35.5236L31.5569 34.7068ZM30.2701 34.164L25.7834 32.2982L28.119 36.5646L30.2701 34.164Z" fill="#FFFCF6"/>
<path d="M37.0333 25.4713C37.4989 25.2007 38.0225 25.123 38.6041 25.2382C39.1857 25.3533 39.6662 25.6347 40.0457 26.0825C40.3701 26.4652 40.5628 26.8975 40.6238 27.3794C40.6859 27.848 40.6057 28.3317 40.3833 28.8306C40.1546 29.3222 39.7912 29.7791 39.2929 30.2015L36.2815 32.754L29.9003 25.2256L32.7709 22.7924C33.2836 22.3578 33.7976 22.0711 34.3128 21.9323C34.828 21.7934 35.3049 21.7924 35.7437 21.9294C36.1763 22.0591 36.5456 22.3045 36.8516 22.6656C37.2189 23.0988 37.4094 23.5579 37.4232 24.0426C37.4369 24.5273 37.307 25.0036 37.0333 25.4713ZM33.8162 27.3419L35.3436 26.0473C35.748 25.7045 35.9856 25.348 36.0564 24.9777C36.1284 24.594 36.0174 24.2289 35.7236 23.8823C35.4359 23.5429 35.097 23.3772 34.7067 23.3853C34.3176 23.3801 33.9208 23.5489 33.5164 23.8917L31.9891 25.1863L33.8162 27.3419ZM38.3307 29.2859C38.7495 28.9309 38.9924 28.5513 39.0593 28.1471C39.1263 27.7429 39.0067 27.3603 38.7006 26.9992C38.3885 26.6309 38.0142 26.4455 37.5778 26.4431C37.1414 26.4407 36.7138 26.617 36.295 26.972L34.6701 28.3493L36.6625 30.6999L38.3307 29.2859Z" fill="#FFFCF6"/>
<path d="M39.3661 17.7598L45.0302 25.8416L43.7046 26.7706L38.0405 18.6888L39.3661 17.7598Z" fill="#FFFCF6"/>
<path d="M47.6356 22.6062L50.4998 20.8939L51.1701 22.0152L46.9165 24.5581L41.8525 16.0874L43.2419 15.2568L47.6356 22.6062Z" fill="#FFFCF6"/>
<path d="M49.7751 11.6761L54.2092 20.4929L52.763 21.2202L48.3289 12.4034L49.7751 11.6761Z" fill="#FFFCF6"/>
<path d="M58.5421 7.91685L59.0331 9.14275L56.5945 10.1196L59.7734 18.055L58.2706 18.657L55.0918 10.7216L52.64 11.7038L52.1489 10.4779L58.5421 7.91685Z" fill="#FFFCF6"/>
<path d="M68.7538 4.9924L67.2129 11.9108L68.132 15.3692L66.5675 15.7849L65.6484 12.3266L60.8627 7.08943L62.6056 6.62626L66.0587 10.7189L67.0246 5.45193L68.7538 4.9924Z" fill="#FFFCF6"/>
</svg>
