<svg width="20" height="20" viewBox="0 0 20 20" fill="none" xmlns="http://www.w3.org/2000/svg">
<rect width="20" height="20" rx="10" fill="url(#paint0_radial_56_1775)"/>
<rect width="20" height="20" rx="10" fill="url(#paint1_radial_56_1775)"/>
<path d="M7.73058 9.93177C7.73058 8.71756 8.71463 7.73298 9.92884 7.73298C11.1431 7.73298 12.1276 8.71756 12.1276 9.93177C12.1276 11.146 11.1431 12.1306 9.92884 12.1306C8.71463 12.1306 7.73058 11.146 7.73058 9.93177ZM6.54196 9.93177C6.54196 11.8023 8.05826 13.3187 9.92884 13.3187C11.7994 13.3187 13.3157 11.8023 13.3157 9.93177C13.3157 8.06119 11.7994 6.54489 9.92884 6.54489C8.05826 6.54489 6.54201 8.06109 6.54201 9.93177M12.6584 6.4106C12.6583 6.56714 12.7047 6.72019 12.7916 6.85039C12.8785 6.98058 13.0021 7.08208 13.1467 7.14204C13.2913 7.20201 13.4504 7.21775 13.604 7.18727C13.7575 7.15679 13.8986 7.08146 14.0093 6.97081C14.12 6.86016 14.1955 6.71916 14.2261 6.56564C14.2567 6.41212 14.2411 6.25297 14.1812 6.10831C14.1214 5.96366 14.02 5.84001 13.8899 5.75298C13.7597 5.66596 13.6067 5.61948 13.4502 5.61942H13.4499C13.24 5.61951 13.0388 5.70289 12.8904 5.85124C12.742 5.99958 12.6585 6.20076 12.6584 6.4106ZM7.26412 15.3007C6.62106 15.2714 6.27153 15.1643 6.03925 15.0738C5.73131 14.9539 5.51159 14.8111 5.28057 14.5804C5.04956 14.3497 4.90656 14.1302 4.7872 13.8223C4.69666 13.5901 4.58954 13.2405 4.56031 12.5974C4.52833 11.9021 4.52195 11.6933 4.52195 9.93188C4.52195 8.17047 4.52886 7.9622 4.56031 7.26637C4.58959 6.6233 4.6975 6.27435 4.7872 6.0415C4.90709 5.73355 5.04988 5.51383 5.28057 5.28282C5.51127 5.0518 5.73078 4.90881 6.03925 4.78945C6.27143 4.6989 6.62106 4.59178 7.26412 4.56255C7.95938 4.53057 8.16823 4.52419 9.92884 4.52419C11.6895 4.52419 11.8985 4.531 12.5943 4.56266C13.2374 4.59194 13.5864 4.69985 13.8192 4.78955C14.1272 4.90891 14.3469 5.05223 14.5779 5.28292C14.8089 5.51362 14.9514 5.73365 15.0713 6.0416C15.1618 6.27377 15.2689 6.62341 15.2982 7.26647C15.3301 7.96231 15.3365 8.17058 15.3365 9.93198C15.3365 11.6934 15.3301 11.9017 15.2982 12.5975C15.2689 13.2406 15.1612 13.5901 15.0713 13.8224C14.9514 14.1303 14.8086 14.35 14.5779 14.5805C14.3472 14.811 14.1272 14.954 13.8192 15.0739C13.587 15.1644 13.2374 15.2715 12.5943 15.3008C11.8991 15.3328 11.6902 15.3391 9.92884 15.3391C8.16744 15.3391 7.95917 15.3328 7.26412 15.3008M7.20951 3.37588C6.50735 3.40786 6.02754 3.5192 5.60852 3.68225C5.17483 3.85062 4.8072 4.07652 4.44011 4.44304C4.07301 4.80955 3.84769 5.17723 3.67932 5.61145C3.51627 6.03073 3.40493 6.51027 3.37295 7.21244C3.34045 7.91571 3.33301 8.14055 3.33301 9.93177C3.33301 11.723 3.34045 11.9478 3.37295 12.6511C3.40493 13.3533 3.51627 13.8328 3.67932 14.2521C3.84769 14.6858 4.07306 15.0541 4.44011 15.4205C4.80715 15.7869 5.1743 16.0124 5.60852 16.1813C6.02833 16.3443 6.50735 16.4557 7.20951 16.4877C7.91316 16.5196 8.13762 16.5276 9.92884 16.5276C11.7201 16.5276 11.9449 16.5202 12.6482 16.4877C13.3504 16.4557 13.8299 16.3443 14.2492 16.1813C14.6829 16.0124 15.0505 15.787 15.4176 15.4205C15.7847 15.054 16.0095 14.6858 16.1784 14.2521C16.3414 13.8328 16.4533 13.3533 16.4847 12.6511C16.5167 11.9473 16.5241 11.723 16.5241 9.93177C16.5241 8.14055 16.5167 7.91571 16.4847 7.21244C16.4528 6.51022 16.3414 6.03047 16.1784 5.61145C16.0095 5.17776 15.7841 4.81013 15.4176 4.44304C15.0511 4.07594 14.6829 3.85062 14.2497 3.68225C13.8299 3.5192 13.3503 3.40733 12.6487 3.37588C11.9453 3.34375 11.7206 3.33594 9.92963 3.33594C8.13868 3.33594 7.91342 3.34338 7.20978 3.37588" fill="#F6F9FF"/>
<defs>
<radialGradient id="paint0_radial_56_1775" cx="0" cy="0" r="1" gradientUnits="userSpaceOnUse" gradientTransform="translate(1.29438 19.5619) scale(25.3926)">
<stop offset="0.09" stop-color="#FA8F21"/>
<stop offset="0.78" stop-color="#D82D7E"/>
</radialGradient>
<radialGradient id="paint1_radial_56_1775" cx="0" cy="0" r="1" gradientUnits="userSpaceOnUse" gradientTransform="translate(13.8533 18.9197) scale(22.3457)">
<stop offset="0.64" stop-color="#8C3AAA" stop-opacity="0"/>
<stop offset="1" stop-color="#8C3AAA"/>
</radialGradient>
</defs>
</svg>
