<svg width="44" height="44" viewBox="0 0 44 44" fill="none" xmlns="http://www.w3.org/2000/svg">
<path d="M22.1007 0C18.2518 0.0063945 14.4715 1.01643 11.1355 2.92973C7.79955 4.84304 5.02407 7.593 3.08486 10.9064C1.14566 14.2197 0.110243 17.9811 0.0815087 21.8168C0.0527746 25.6524 1.03172 29.4288 2.92107 32.7706L0.0441241 42.748C-0.00795763 42.9132 -0.014056 43.0893 0.0264801 43.2576C0.0670163 43.426 0.152665 43.5801 0.27428 43.7037C0.363413 43.7969 0.470519 43.8712 0.589169 43.9221C0.70782 43.973 0.835568 43.9995 0.964747 44H1.1949L11.6478 41.4196C14.6027 42.9739 17.8733 43.8388 21.2127 43.9491C24.5521 44.0595 27.873 43.4122 30.9247 42.0564C33.9764 40.7005 36.6791 38.6714 38.8288 36.1224C40.9785 33.5733 42.5189 30.5708 43.3339 27.3416C44.1488 24.1124 44.2169 20.7408 43.5331 17.4816C42.8493 14.2223 41.4313 11.1604 39.3864 8.52716C37.3414 5.89389 34.7228 3.75803 31.7284 2.28085C28.7339 0.803659 25.4419 0.0237501 22.1007 0ZM33.1962 29.7315C32.7262 31.0313 30.463 32.2259 29.3602 32.3788C28.1701 32.5822 26.9488 32.5069 25.7928 32.159C24.6997 31.821 23.6243 31.4287 22.5706 30.9835C16.8934 28.5752 13.1822 22.9461 12.8945 22.5734C12.6068 22.2007 10.5929 19.5534 10.5929 16.8106C10.5761 15.9406 10.7443 15.077 11.0865 14.2765C11.4286 13.4759 11.9369 12.7567 12.578 12.1659C12.7667 11.952 12.9981 11.7795 13.2572 11.6594C13.5164 11.5393 13.7979 11.4742 14.0836 11.4683C14.4672 11.4683 14.8412 11.4683 15.1673 11.4683C15.4933 11.4683 15.9824 11.3345 16.4427 12.424C16.903 13.5135 18.0538 16.2467 18.1881 16.5621C18.2722 16.7074 18.3166 16.8722 18.3166 17.04C18.3166 17.2077 18.2722 17.3725 18.1881 17.5178C18.0526 17.8648 17.8615 18.1875 17.6223 18.4735C17.3442 18.7984 17.0277 19.1998 16.7784 19.4292C16.529 19.6586 16.1934 20.0122 16.529 20.5665C17.3795 21.9905 18.4398 23.2792 19.6745 24.3892C21.021 25.5682 22.5621 26.5058 24.2297 27.1607C24.7955 27.4379 25.1215 27.3901 25.4572 27.0174C25.7928 26.6447 26.8669 25.3927 27.2505 24.8384C27.6341 24.2841 27.9985 24.3701 28.5259 24.5517C29.0533 24.7333 31.8248 26.0904 32.3618 26.3675C32.8989 26.6447 33.3208 26.788 33.4455 27.0174C33.6408 27.9263 33.5539 28.873 33.1962 29.7315Z" fill="#23A414"/>
</svg>
