<svg width="20" height="20" viewBox="0 0 20 20" fill="none" xmlns="http://www.w3.org/2000/svg">
<path d="M10.0005 0C8.25543 0.00290912 6.54153 0.462414 5.02907 1.33285C3.51662 2.20329 2.25828 3.45437 1.37908 4.96175C0.499886 6.46913 0.0304505 8.18034 0.0174231 9.92533C0.00439567 11.6703 0.44823 13.3884 1.30482 14.9087L0.000473702 19.4478C-0.0231391 19.523 -0.025904 19.6031 -0.00752571 19.6797C0.0108525 19.7562 0.0496838 19.8264 0.104822 19.8826C0.145233 19.925 0.193792 19.9588 0.247586 19.982C0.301379 20.0051 0.359298 20.0172 0.417865 20.0174H0.522213L5.26134 18.8435C6.60103 19.5506 8.08386 19.9441 9.59787 19.9943C11.1119 20.0444 12.6175 19.75 14.0011 19.1332C15.3847 18.5163 16.61 17.5932 17.5846 16.4335C18.5592 15.2738 19.2577 13.9079 19.6271 12.4388C19.9966 10.9697 20.0275 9.43585 19.7175 7.95307C19.4074 6.47029 18.7646 5.07733 17.8374 3.87935C16.9103 2.68137 15.7231 1.70968 14.3655 1.03765C13.0078 0.365617 11.5153 0.0108049 10.0005 0ZM15.0309 13.5261C14.8179 14.1174 13.7918 14.6609 13.2918 14.7304C12.7522 14.823 12.1985 14.7887 11.6744 14.6304C11.1788 14.4767 10.6912 14.2982 10.2135 14.0957C7.6396 13 5.957 10.4391 5.82656 10.2696C5.69613 10.1 4.78308 8.89565 4.78308 7.64783C4.77546 7.25205 4.85172 6.85914 5.00684 6.49494C5.16196 6.13075 5.39243 5.80352 5.68308 5.53478C5.76865 5.43745 5.87351 5.35898 5.99102 5.30434C6.10854 5.2497 6.23612 5.22009 6.36569 5.21739C6.5396 5.21739 6.70917 5.21739 6.857 5.21739C7.00482 5.21739 7.22656 5.15652 7.43526 5.65217C7.64395 6.14783 8.16569 7.3913 8.22656 7.53478C8.26472 7.60088 8.28481 7.67585 8.28481 7.75217C8.28481 7.82849 8.26472 7.90347 8.22656 7.96956C8.16514 8.12742 8.07851 8.27425 7.97004 8.40435C7.84395 8.55217 7.70047 8.73478 7.58743 8.83913C7.47439 8.94348 7.32221 9.10435 7.47439 9.35652C7.85996 10.0044 8.34069 10.5906 8.90047 11.0957C9.51094 11.632 10.2097 12.0586 10.9657 12.3565C11.2222 12.4826 11.37 12.4609 11.5222 12.2913C11.6744 12.1217 12.1613 11.5522 12.3353 11.3C12.5092 11.0478 12.6744 11.087 12.9135 11.1696C13.1526 11.2522 14.4092 11.8696 14.6526 11.9957C14.8961 12.1217 15.0874 12.187 15.144 12.2913C15.2325 12.7048 15.1931 13.1355 15.0309 13.5261Z" fill="#23A414"/>
</svg>
