<svg width="147" height="57" viewBox="0 0 147 57" fill="none" xmlns="http://www.w3.org/2000/svg">
<path d="M30.4575 35.9901C31.4859 33.4896 31.5355 30.6732 31.0641 28.0111C30.8033 26.537 30.3901 25.099 29.9102 23.68C29.6362 23.2063 29.3645 22.7326 29.097 22.2578C30.1808 32.3892 17.133 37.5293 17.0629 46.5548C17.0249 51.4259 20.0517 53.9997 22.8697 54.8958C22.891 50.3701 24.1953 45.8455 26.6485 42.0388C27.9419 40.0317 29.5494 38.1979 30.4575 35.9897V35.9901Z" fill="url(#paint0_linear_128_1347)"/>
<path d="M38.167 44.0789C37.3096 35.765 33.4064 29.7198 29.9117 23.6797C30.3911 25.0987 30.8043 26.5368 31.0656 28.0109C31.5369 30.673 31.4873 33.4894 30.459 35.9898C29.5508 38.1981 27.9438 40.0318 26.6499 42.0389C24.1967 45.846 22.8924 50.3702 22.8711 54.896C22.9409 54.9181 23.0102 54.9394 23.0792 54.9599C32.9222 57.8158 38.7841 50.0648 38.167 44.0793V44.0789Z" fill="url(#paint1_linear_128_1347)"/>
<path d="M16.2973 38.265C16.8643 37.3145 17.5492 36.3343 18.3675 35.3261C22.8335 29.8259 27.362 26.0932 27.2461 19.0088C27.1895 15.5521 25.9054 8.41774 22.5711 3.20049C21.9447 2.22022 21.2463 1.30778 20.4695 0.5C23.2901 11.5043 6.51704 25.2881 3.52895 30.1123C1.1715 33.9179 -0.414998 38.5313 0.095874 42.8795C0.232701 44.0435 0.519146 45.1881 0.981953 46.2936C2.34131 49.5398 4.99606 52.2178 8.15199 53.7748C8.65627 54.0237 9.1873 54.2539 9.73383 54.4671C13.0836 55.7726 17.0372 56.4036 19.3121 56.3385C17.6376 55.209 10.2315 48.4312 16.2969 38.2654L16.2973 38.265Z" fill="url(#paint2_linear_128_1347)"/>
<path d="M61.9113 19.8562C61.7977 19.5803 61.5311 19.4023 61.2326 19.4023H58.5077C58.2557 19.4023 58.0243 19.5287 57.8883 19.7419L47.3263 36.3084C47.1817 36.5351 47.1724 36.8216 47.3015 37.0557C47.4305 37.291 47.6774 37.4375 47.9461 37.4375H50.6946C50.9473 37.4375 51.1791 37.3104 51.3148 37.0972L53.2924 33.9889H60.8853L61.5287 36.8631C61.6043 37.2011 61.8993 37.4371 62.2458 37.4371H64.8738C65.0975 37.4371 65.306 37.3371 65.4463 37.1631C65.587 36.989 65.6397 36.7631 65.5917 36.5437L61.966 20.1818C61.9729 20.0702 61.9543 19.9578 61.9117 19.8558L61.9113 19.8562ZM60.0988 30.3981H55.5777L58.9244 25.1363L60.0988 30.3981Z" fill="#012762"/>
<path d="M88.9326 19.6737L88.9318 19.6725C88.7919 19.5008 88.5841 19.4023 88.362 19.4023H85.9022C85.6708 19.4023 85.4507 19.5128 85.3135 19.6977L78.0818 29.3899L74.9778 19.9078C74.8786 19.6051 74.5979 19.4023 74.2797 19.4023H71.8688C71.5226 19.4023 71.2203 19.6481 71.1494 19.9869L67.7016 36.5522C67.6554 36.77 67.7101 36.9941 67.85 37.1658C67.99 37.3387 68.1977 37.4375 68.4206 37.4375H70.8563C71.2013 37.4375 71.5033 37.1925 71.575 36.8542L73.501 27.7116L76.2604 35.9716C76.3476 36.2313 76.5697 36.4204 76.843 36.4642C77.1147 36.5065 77.3845 36.396 77.5484 36.1751L83.5494 28.0585L81.7606 36.551C81.7145 36.7689 81.7688 36.9925 81.9087 37.1654C82.0486 37.3383 82.2564 37.4371 82.4796 37.4371H84.9154C85.2604 37.4371 85.5627 37.1918 85.6348 36.8526L89.083 20.2849C89.1279 20.0683 89.0733 19.8454 88.9341 19.6733L88.9326 19.6737Z" fill="#012762"/>
<path d="M95.2983 19.6737L95.2975 19.6725C95.1576 19.5008 94.9498 19.4023 94.7277 19.4023H92.2923C91.9462 19.4023 91.6439 19.6481 91.5729 19.9869L88.1247 36.5545C88.0798 36.772 88.1344 36.9952 88.2736 37.1658C88.4135 37.3387 88.6213 37.4375 88.8442 37.4375H91.2799C91.626 37.4375 91.9284 37.1918 91.9993 36.853L95.4475 20.2853C95.4925 20.0686 95.4378 19.8458 95.2987 19.6737H95.2983Z" fill="#012762"/>
<path d="M113.054 19.4027H110.618C110.273 19.4027 109.971 19.6473 109.899 19.9853L107.655 30.6101L101.712 19.7822C101.582 19.5481 101.336 19.4027 101.068 19.4027H98.6566C98.3105 19.4027 98.0082 19.6485 97.9372 19.9872L94.489 36.5549C94.4441 36.7724 94.4987 36.9956 94.6379 37.1662C94.7778 37.3391 94.9856 37.4379 95.2084 37.4379H97.6442C97.9888 37.4379 98.2911 37.1933 98.3628 36.8565L100.628 26.2251L106.574 37.0569C106.703 37.2918 106.95 37.4375 107.218 37.4375H109.605C109.951 37.4375 110.254 37.1918 110.325 36.853L113.772 20.2876C113.818 20.0702 113.764 19.8465 113.624 19.6741C113.485 19.5012 113.277 19.4023 113.054 19.4023V19.4027Z" fill="#012762"/>
<path d="M125.153 19.1134C122.299 19.1134 119.448 20.2828 117.333 22.3213C115.169 24.4074 113.977 27.1261 113.977 29.9762C113.977 34.2504 117.454 37.7276 121.728 37.7276C124.571 37.7276 127.418 36.5551 129.539 34.5105C131.678 32.4488 132.904 29.6622 132.904 26.8652C132.904 22.4461 129.572 19.1134 125.153 19.1134ZM124.839 22.8252C127.236 22.8252 128.976 24.5648 128.976 26.9617C128.976 30.6533 125.682 34.0159 122.066 34.0159C119.811 34.0159 117.905 32.0995 117.905 29.8312C117.905 26.0989 121.145 22.8252 124.839 22.8252Z" fill="#012762"/>
<path d="M146.149 33.9738C146.009 33.8009 145.8 33.7017 145.578 33.7017H137.726L140.486 20.2849C140.531 20.0679 140.476 19.8446 140.336 19.6725C140.196 19.5008 139.989 19.4023 139.767 19.4023H137.307C136.961 19.4023 136.659 19.6481 136.588 19.9869L133.14 36.5522C133.094 36.7697 133.148 36.9933 133.289 37.1673C133.43 37.3394 133.637 37.4379 133.859 37.4379H145.096C145.44 37.4379 145.743 37.1933 145.814 36.8561L146.297 34.5882C146.343 34.37 146.289 34.1463 146.149 33.9738H146.149Z" fill="#012762"/>
<defs>
<linearGradient id="paint0_linear_128_1347" x1="34.5654" y1="44.8024" x2="22.8498" y2="36.6242" gradientUnits="userSpaceOnUse">
<stop stop-color="#EB2E3A"/>
<stop offset="0.99" stop-color="#DE2C28"/>
</linearGradient>
<linearGradient id="paint1_linear_128_1347" x1="40.5124" y1="48.3287" x2="22.78" y2="36.9763" gradientUnits="userSpaceOnUse">
<stop stop-color="#E32630"/>
<stop offset="0.23" stop-color="#DC252F"/>
<stop offset="0.57" stop-color="#C9242C"/>
<stop offset="0.91" stop-color="#AF2329"/>
</linearGradient>
<linearGradient id="paint2_linear_128_1347" x1="23.3894" y1="34.7656" x2="6.74767" y2="21.2368" gradientUnits="userSpaceOnUse">
<stop offset="0.21" stop-color="#2A3988"/>
<stop offset="0.29" stop-color="#2A3F8D"/>
<stop offset="0.42" stop-color="#2C529C"/>
<stop offset="0.57" stop-color="#2F73B5"/>
<stop offset="1" stop-color="#5BC9E4"/>
</linearGradient>
</defs>
</svg>
