<svg width="214" height="214" viewBox="0 0 214 214" fill="none" xmlns="http://www.w3.org/2000/svg">
<path d="M112.15 15.7715C111.443 15.7135 110.817 15.5401 110.271 15.2513C109.726 14.9525 109.311 14.5625 109.025 14.0815C108.739 13.6006 108.621 13.0571 108.671 12.4511L110.519 12.6027C110.522 13.0605 110.668 13.4487 110.957 13.7672C111.256 14.0866 111.694 14.2699 112.269 14.3172C112.865 14.366 113.341 14.2628 113.698 14.0073C114.055 13.7418 114.252 13.3818 114.29 12.9273C114.319 12.5738 114.236 12.2773 114.042 12.0377C113.859 11.7989 113.615 11.6061 113.312 11.4592C113.019 11.3132 112.605 11.1471 112.072 10.961C111.4 10.7229 110.854 10.4951 110.435 10.2777C110.026 10.051 109.687 9.7283 109.416 9.30957C109.146 8.89084 109.037 8.35325 109.091 7.69678C109.141 7.09082 109.336 6.57303 109.676 6.1434C110.016 5.71378 110.469 5.40015 111.034 5.20249C111.599 5.00484 112.241 4.93542 112.958 4.99424C113.978 5.07791 114.79 5.40379 115.394 5.97188C116.009 6.53069 116.315 7.25738 116.313 8.15192L114.404 7.99535C114.406 7.60909 114.251 7.26595 113.94 6.96593C113.629 6.66591 113.201 6.49353 112.655 6.44879C112.16 6.4082 111.746 6.50131 111.412 6.72811C111.079 6.95492 110.892 7.30566 110.853 7.78033C110.827 8.10351 110.901 8.37902 111.075 8.60684C111.261 8.8254 111.5 9.0077 111.793 9.15375C112.086 9.29979 112.489 9.46505 113.003 9.64952C113.684 9.89857 114.234 10.1368 114.652 10.3644C115.081 10.5927 115.43 10.9213 115.7 11.3501C115.981 11.7697 116.094 12.3127 116.039 12.9793C115.995 13.5146 115.807 14.0075 115.476 14.4582C115.154 14.9096 114.703 15.259 114.124 15.5064C113.555 15.7444 112.897 15.8328 112.15 15.7715Z" fill="white"/>
<path d="M127.927 6.99513L126.228 13.5107C126.026 14.2853 126.074 14.9211 126.374 15.4182C126.684 15.9178 127.201 16.2623 127.927 16.4516C128.662 16.6434 129.282 16.5957 129.786 16.3084C130.3 16.0236 130.659 15.4939 130.861 14.7193L132.56 8.20378L134.237 8.64119L132.545 15.1273C132.328 15.9607 131.962 16.6194 131.448 17.1033C130.935 17.5871 130.337 17.8919 129.655 18.0177C128.972 18.1434 128.264 18.1104 127.528 17.9185C126.793 17.7267 126.158 17.4093 125.625 16.9663C125.101 16.526 124.738 15.9705 124.536 15.2999C124.334 14.6293 124.341 13.8773 124.559 13.0438L126.251 6.55772L127.927 6.99513Z" fill="white"/>
<path d="M142.724 22.8474C142.079 22.5519 141.549 22.1755 141.134 21.7181C140.724 21.2514 140.466 20.7433 140.362 20.1937C140.257 19.644 140.331 19.0928 140.584 18.5401L142.27 19.3124C142.117 19.7438 142.122 20.1586 142.285 20.5566C142.458 20.9588 142.806 21.2802 143.331 21.5207C143.875 21.7697 144.358 21.8349 144.78 21.7162C145.206 21.5883 145.515 21.3171 145.705 20.9025C145.852 20.58 145.876 20.2732 145.775 19.9819C145.684 19.6948 145.521 19.4305 145.286 19.1892C145.06 18.952 144.728 18.655 144.289 18.2981C143.739 17.8453 143.304 17.4453 142.983 17.098C142.677 16.7457 142.467 16.3266 142.356 15.8407C142.244 15.3548 142.325 14.8124 142.599 14.2136C142.853 13.6608 143.212 13.2404 143.679 12.9525C144.145 12.6645 144.678 12.5239 145.276 12.5307C145.875 12.5375 146.501 12.6907 147.156 12.9904C148.086 13.4166 148.739 13.9997 149.113 14.7397C149.501 15.4746 149.541 16.2622 149.234 17.1025L147.493 16.3048C147.626 15.9421 147.597 15.5667 147.407 15.1787C147.217 14.7907 146.873 14.4827 146.376 14.2548C145.924 14.0481 145.503 13.9944 145.112 14.0939C144.721 14.1934 144.426 14.4596 144.228 14.8926C144.093 15.1874 144.068 15.4717 144.155 15.7453C144.255 16.014 144.417 16.2669 144.643 16.504C144.869 16.7412 145.192 17.034 145.612 17.3824C146.167 17.8487 146.603 18.26 146.919 18.6166C147.244 18.9773 147.46 19.4052 147.568 19.9003C147.689 20.3905 147.61 20.9395 147.332 21.5476C147.108 22.0358 146.763 22.4353 146.298 22.7459C145.842 23.0607 145.299 23.2357 144.67 23.2707C144.054 23.3008 143.406 23.1597 142.724 22.8474Z" fill="white"/>
<path d="M164.613 22.7676L163.828 23.9431L161.489 22.3815L156.408 29.9911L154.967 29.0288L160.048 21.4192L157.697 19.8491L158.482 18.6735L164.613 22.7676Z" fill="white"/>
<path d="M170.858 38.5331L167.641 35.4973L165.607 36.5454L164.291 35.3039L174.305 30.2076L175.764 31.5846L171.256 41.8763L169.929 40.6245L170.858 38.5331ZM171.474 37.1712L173.595 32.4216L168.965 34.803L171.474 37.1712Z" fill="white"/>
<path d="M185.706 42.0803L177.482 48.7106L176.395 47.3617L184.619 40.7313L185.706 42.0803Z" fill="white"/>
<path d="M186.257 61.3524L185.368 59.8654L189.461 51.3413L182.691 55.3913L181.801 53.9043L190.88 48.473L191.77 49.96L187.689 58.4764L194.446 54.4341L195.336 55.9211L186.257 61.3524Z" fill="white"/>
<path d="M194.607 74.0698L193.079 69.9189L190.79 69.9514L190.166 68.2539L201.401 68.1509L202.094 70.0338L193.474 77.2403L192.844 75.5286L194.607 74.0698ZM195.765 73.125L199.779 69.817L194.573 69.887L195.765 73.125Z" fill="white"/>
<path d="M202.166 89.1925C202.165 89.7689 201.955 90.295 201.535 90.7708C201.115 91.2466 200.596 91.5393 199.977 91.649C199.448 91.7427 198.945 91.6879 198.466 91.4846C197.999 91.2895 197.595 90.9546 197.254 90.4799C196.922 90.0035 196.696 89.4211 196.574 88.7326L195.836 84.5719L206.238 82.7282L206.941 86.6944C207.067 87.4028 207.055 88.0327 206.905 88.584C206.756 89.1353 206.5 89.577 206.137 89.9089C205.784 90.239 205.358 90.4483 204.859 90.5368C204.26 90.6429 203.733 90.5717 203.277 90.3231C202.822 90.0746 202.451 89.6977 202.166 89.1925ZM202.17 85.209L202.544 87.3193C202.643 87.8781 202.845 88.29 203.149 88.5551C203.465 88.8284 203.863 88.9226 204.342 88.8378C204.811 88.7546 205.146 88.5304 205.349 88.1652C205.564 87.8081 205.622 87.3502 205.523 86.7914L205.149 84.6811L202.17 85.209ZM197.939 88.3363C198.042 88.915 198.262 89.3442 198.599 89.624C198.937 89.9037 199.355 89.9994 199.854 89.9109C200.363 89.8207 200.736 89.5745 200.974 89.1722C201.211 88.77 201.279 88.2795 201.176 87.7007L200.778 85.4557L197.53 86.0314L197.939 88.3363Z" fill="white"/>
<path d="M208.737 100.927L198.184 101.412L198.105 99.6812L208.657 99.1964L208.737 100.927Z" fill="white"/>
<path d="M199.717 110.002L199.486 113.567L198.091 113.476L198.434 108.183L208.976 108.866L208.864 110.595L199.717 110.002Z" fill="white"/>
<path d="M207.53 123.49L197.127 121.652L197.429 119.945L207.832 121.783L207.53 123.49Z" fill="white"/>
<path d="M204.052 137.883L202.7 137.468L203.527 134.78L194.781 132.09L195.29 130.434L204.036 133.124L204.867 130.421L206.219 130.837L204.052 137.883Z" fill="white"/>
<path d="M197.652 153.333L193.157 147.221L189.721 145.527L190.487 143.973L193.923 145.666L201.515 145.493L200.662 147.224L194.93 147.129L198.498 151.615L197.652 153.333Z" fill="white"/>
<path d="M186.988 169.85L178.773 163.208L179.863 161.861L188.077 168.503L186.988 169.85Z" fill="white"/>
<path d="M171.997 170.764C172.509 170.273 173.054 169.919 173.632 169.702C174.217 169.492 174.784 169.44 175.334 169.545C175.884 169.65 176.369 169.921 176.79 170.36L175.451 171.644C175.106 171.342 174.719 171.194 174.288 171.2C173.851 171.212 173.424 171.418 173.007 171.818C172.575 172.231 172.337 172.656 172.292 173.093C172.254 173.536 172.393 173.923 172.708 174.252C172.954 174.508 173.23 174.643 173.538 174.656C173.839 174.677 174.144 174.622 174.455 174.493C174.759 174.37 175.157 174.171 175.651 173.895C176.274 173.549 176.806 173.292 177.247 173.122C177.688 172.967 178.154 172.926 178.647 173.001C179.14 173.076 179.615 173.351 180.07 173.827C180.491 174.266 180.75 174.755 180.846 175.294C180.942 175.834 180.877 176.381 180.65 176.935C180.423 177.489 180.05 178.015 179.531 178.513C178.792 179.222 178.01 179.613 177.184 179.689C176.358 179.779 175.61 179.527 174.942 178.932L176.325 177.607C176.613 177.864 176.973 177.975 177.403 177.942C177.834 177.908 178.247 177.701 178.642 177.323C179 176.979 179.205 176.607 179.257 176.207C179.308 175.807 179.169 175.435 178.84 175.091C178.615 174.857 178.36 174.729 178.074 174.709C177.787 174.703 177.492 174.761 177.189 174.884C176.885 175.006 176.494 175.199 176.015 175.461C175.377 175.806 174.834 176.06 174.387 176.222C173.932 176.392 173.454 176.435 172.954 176.353C172.454 176.285 171.972 176.01 171.509 175.527C171.138 175.14 170.893 174.672 170.776 174.125C170.651 173.585 170.688 173.016 170.887 172.418C171.086 171.834 171.456 171.283 171.997 170.764Z" fill="white"/>
<path d="M159.526 188.239C160.009 189.153 160.231 190.084 160.194 191.032C160.147 191.985 159.867 192.855 159.355 193.642C158.838 194.442 158.145 195.072 157.276 195.531C156.281 196.057 155.268 196.276 154.237 196.191C153.202 196.119 152.273 195.727 151.451 195.016L153.292 194.043C153.794 194.408 154.324 194.598 154.882 194.612C155.44 194.627 156.001 194.485 156.565 194.187C157.184 193.861 157.661 193.431 157.998 192.897C158.335 192.364 158.506 191.764 158.509 191.097C158.503 190.436 158.318 189.76 157.953 189.07C157.589 188.38 157.135 187.846 156.592 187.469C156.039 187.096 155.445 186.894 154.81 186.863C154.18 186.841 153.555 186.993 152.937 187.32C152.373 187.618 151.939 188.002 151.637 188.471C151.335 188.94 151.193 189.485 151.211 190.105L149.37 191.078C149.246 189.997 149.446 189.009 149.97 188.114C150.485 187.223 151.239 186.515 152.234 185.989C153.112 185.525 154.02 185.303 154.959 185.323C155.903 185.352 156.781 185.615 157.595 186.114C158.399 186.617 159.043 187.325 159.526 188.239Z" fill="white"/>
<path d="M135.293 193.465C136.238 193.193 137.172 193.162 138.097 193.371C139.014 193.592 139.82 194.03 140.515 194.684C141.202 195.351 141.688 196.181 141.974 197.175C142.259 198.168 142.287 199.125 142.056 200.046C141.815 200.969 141.363 201.763 140.7 202.428C140.03 203.105 139.223 203.58 138.278 203.852C137.324 204.126 136.388 204.152 135.47 203.931C134.546 203.722 133.741 203.289 133.057 202.632C132.372 201.975 131.887 201.15 131.602 200.156C131.316 199.163 131.288 198.201 131.516 197.271C131.747 196.35 132.197 195.551 132.867 194.874C133.53 194.209 134.339 193.739 135.293 193.465ZM135.709 194.911C135.037 195.104 134.481 195.427 134.042 195.88C133.606 196.343 133.323 196.899 133.193 197.548C133.056 198.209 133.095 198.915 133.311 199.665C133.527 200.415 133.866 201.029 134.331 201.507C134.785 201.988 135.319 202.304 135.932 202.454C136.544 202.605 137.187 202.584 137.859 202.391C138.531 202.198 139.086 201.874 139.525 201.421C139.964 200.968 140.254 200.416 140.393 199.764C140.523 199.115 140.48 198.416 140.265 197.666C140.049 196.916 139.713 196.296 139.255 195.805C138.791 195.327 138.251 195.008 137.636 194.847C137.023 194.697 136.381 194.718 135.709 194.911Z" fill="white"/>
<path d="M116.352 197.496L119.162 201.48L120.479 201.358L120.09 197.151L121.815 196.991L122.787 207.51L119.154 207.846C118.347 207.92 117.653 207.842 117.072 207.611C116.481 207.38 116.027 207.041 115.711 206.592C115.385 206.143 115.194 205.627 115.14 205.042C115.077 204.355 115.221 203.711 115.572 203.109C115.915 202.517 116.49 202.083 117.299 201.804L114.293 197.686L116.352 197.496ZM120.606 202.736L118.699 202.912C118.053 202.971 117.584 203.177 117.29 203.53C116.987 203.884 116.861 204.333 116.911 204.878C116.962 205.423 117.162 205.832 117.513 206.105C117.865 206.388 118.369 206.499 119.024 206.438L120.932 206.262L120.606 202.736Z" fill="white"/>
<path d="M104.029 207.135L104.234 204.041L100.594 203.8L100.687 202.39L104.327 202.63L104.54 199.399L100.445 199.129L100.538 197.719L106.362 198.103L105.665 208.659L99.8413 208.275L99.9344 206.864L104.029 207.135Z" fill="white"/>
<path d="M79.7105 193.698C80.6374 194.025 81.4168 194.541 82.0486 195.248C82.6675 195.961 83.0698 196.785 83.2553 197.721C83.428 198.663 83.3423 199.621 82.9984 200.596C82.6544 201.571 82.1213 202.366 81.3991 202.981C80.6673 203.593 79.8385 203.978 78.9127 204.135C77.9741 204.298 77.0412 204.216 76.1143 203.889C75.1779 203.558 74.4002 203.037 73.7812 202.324C73.1494 201.618 72.7455 200.798 72.5695 199.866C72.3935 198.933 72.4774 197.98 72.8214 197.005C73.1653 196.03 73.7001 195.23 74.4257 194.605C75.1479 193.99 75.9784 193.6 76.9171 193.437C77.8429 193.28 78.774 193.367 79.7105 193.698ZM79.2097 195.117C78.5504 194.884 77.9104 194.825 77.2899 194.939C76.666 195.063 76.1129 195.351 75.6306 195.804C75.1355 196.263 74.7581 196.861 74.4984 197.597C74.2388 198.332 74.1593 199.03 74.26 199.688C74.3511 200.344 74.6024 200.911 75.0138 201.389C75.4253 201.867 75.9608 202.223 76.6201 202.456C77.2795 202.688 77.9194 202.747 78.54 202.633C79.1605 202.519 79.7167 202.237 80.2085 201.787C80.6907 201.334 81.0617 200.74 81.3213 200.004C81.5809 199.268 81.6669 198.568 81.5792 197.903C81.4785 197.244 81.2241 196.671 80.816 196.183C80.4045 195.705 79.8691 195.349 79.2097 195.117Z" fill="white"/>
<path d="M56.1173 194.824L56.8152 193.595L60.7146 195.809L62.253 193.099L59.2128 191.373L59.9107 190.144L62.9509 191.87L65.2322 187.851L66.7391 188.707L61.5236 197.893L56.1173 194.824Z" fill="white"/>
<path d="M44.7933 173.238C45.4873 173.934 45.9662 174.737 46.2299 175.648C46.4793 176.558 46.485 177.475 46.2472 178.399C45.995 179.323 45.5029 180.15 44.7709 180.88C44.0389 181.609 43.2141 182.095 42.2966 182.338C41.3719 182.573 40.4583 182.561 39.5559 182.301C38.6391 182.042 37.8338 181.564 37.1398 180.868C36.4387 180.165 35.9634 179.358 35.714 178.448C35.4503 177.537 35.4409 176.624 35.686 175.707C35.931 174.79 36.4195 173.967 37.1515 173.237C37.8835 172.507 38.7118 172.018 39.6365 171.768C40.5541 171.526 41.4712 171.535 42.388 171.794C43.2904 172.053 44.0922 172.535 44.7933 173.238ZM43.7277 174.3C43.234 173.805 42.6828 173.475 42.074 173.309C41.458 173.15 40.8346 173.171 40.2037 173.371C39.5585 173.57 38.9597 173.946 38.4071 174.496C37.8545 175.047 37.481 175.641 37.2865 176.279C37.0849 176.909 37.0661 177.529 37.23 178.138C37.3938 178.747 37.7226 179.3 38.2162 179.795C38.7099 180.29 39.2611 180.621 39.8699 180.786C40.4787 180.952 41.1021 180.939 41.7401 180.746C42.371 180.546 42.9627 180.171 43.5153 179.62C44.0679 179.069 44.4485 178.475 44.6573 177.838C44.8518 177.2 44.8706 176.574 44.7139 175.957C44.5501 175.348 44.2213 174.796 43.7277 174.3Z" fill="white"/>
<path d="M25.3866 167.575L30.9816 163.829C31.6468 163.383 32.0322 162.875 32.1378 162.304C32.2378 161.725 32.0791 161.124 31.6619 160.501C31.239 159.87 30.7436 159.494 30.1756 159.374C29.602 159.246 28.9826 159.405 28.3175 159.85L22.7225 163.597L21.7583 162.157L27.3281 158.427C28.0437 157.948 28.7543 157.698 29.4597 157.677C30.1651 157.656 30.8146 157.824 31.4084 158.183C32.0021 158.541 32.5104 159.036 32.9333 159.668C33.3562 160.299 33.6203 160.958 33.7257 161.643C33.8255 162.321 33.7285 162.977 33.4347 163.613C33.1409 164.249 32.6362 164.806 31.9205 165.285L26.3508 169.015L25.3866 167.575Z" fill="white"/>
<path d="M23.9067 144.087L21.0169 148.014L21.549 149.224L25.4174 147.524L26.1147 149.11L16.4437 153.361L14.9758 150.022C14.6496 149.28 14.5042 148.596 14.5397 147.972C14.5711 147.338 14.7498 146.8 15.0757 146.358C15.3975 145.907 15.8274 145.563 16.3655 145.326C16.9963 145.049 17.653 144.982 18.3356 145.125C19.0049 145.262 19.5994 145.67 20.1193 146.35L23.0749 142.195L23.9067 144.087ZM20.2828 149.781L19.5121 148.028C19.2511 147.434 18.907 147.054 18.4797 146.888C18.0482 146.712 17.5821 146.734 17.0811 146.954C16.5802 147.175 16.2558 147.494 16.108 147.913C15.9509 148.337 16.0048 148.85 16.2699 149.453L17.0406 151.206L20.2828 149.781Z" fill="white"/>
<path d="M7.37238 126.916L17.7509 124.945L18.0742 126.648L7.69564 128.618L7.37238 126.916Z" fill="white"/>
<path d="M15.9763 109.688L16.0605 111.419L8.43422 117.009L16.3137 116.626L16.3979 118.357L5.83116 118.871L5.747 117.14L13.3581 111.55L5.49377 111.933L5.40961 110.202L15.9763 109.688Z" fill="white"/>
<path d="M17.0563 92.3854L16.8149 94.1013L8.27667 98.165L16.0885 99.264L15.8471 100.98L5.3711 99.5061L5.61251 97.7902L14.1357 93.7243L6.33885 92.6274L6.58026 90.9115L17.0563 92.3854Z" fill="white"/>
<path d="M20.1766 79.4011C19.8503 80.3283 19.3341 81.1081 18.6281 81.7405C17.9159 82.36 17.0919 82.7629 16.1562 82.9492C15.2143 83.1226 14.2558 83.0377 13.2809 82.6946C12.3059 82.3514 11.5103 81.819 10.8942 81.0972C10.2815 80.3659 9.89625 79.5374 9.73861 78.6118C9.57478 77.6733 9.65603 76.7404 9.98235 75.8132C10.312 74.8765 10.833 74.0983 11.5452 73.4788C12.2512 72.8464 13.0704 72.4418 14.0027 72.2651C14.9351 72.0883 15.8888 72.1715 16.8637 72.5147C17.8387 72.8578 18.639 73.392 19.2647 74.1171C19.8809 74.8388 20.2708 75.669 20.4347 76.6075C20.5923 77.5332 20.5063 78.4644 20.1766 79.4011ZM18.7571 78.9015C18.9893 78.242 19.048 77.602 18.9334 76.9815C18.8092 76.3577 18.5203 75.8049 18.0668 75.323C17.6072 74.8282 17.0093 74.4513 16.2733 74.1922C15.5373 73.9332 14.84 73.8542 14.1813 73.9554C13.5259 74.0471 12.9593 74.2988 12.4813 74.7107C12.0033 75.1226 11.6483 75.6583 11.4161 76.3178C11.184 76.9774 11.1253 77.6174 11.2399 78.2378C11.3546 78.8583 11.637 79.4142 12.0871 79.9057C12.5405 80.3875 13.1353 80.758 13.8713 81.017C14.6073 81.2761 15.3077 81.3615 15.9726 81.2732C16.6313 81.172 17.2044 80.9172 17.692 80.5086C18.17 80.0968 18.525 79.5611 18.7571 78.9015Z" fill="white"/>
<path d="M20.6355 53.0971L27.71 61.8885L26.6888 63.6156L15.5685 61.6673L16.5123 60.071L25.6686 61.847L19.7072 54.6672L20.6355 53.0971Z" fill="white"/>
<path d="M36.3849 45.8552L33.4812 49.1918L34.6105 51.1821L33.4231 52.5466L27.9273 42.7466L29.2444 41.233L39.7095 45.3229L38.5121 46.6988L36.3849 45.8552ZM34.9993 45.2941L30.1682 43.3668L32.7342 47.8969L34.9993 45.2941Z" fill="white"/>
<path d="M43.5587 27.2935L44.4557 28.3861L42.2824 30.1704L48.0887 37.2427L46.7494 38.3422L40.9431 31.2699L38.758 33.0639L37.861 31.9713L43.5587 27.2935Z" fill="white"/>
<path d="M51.7653 21.3655L57.4245 30.2858L55.9614 31.214L50.3022 22.2938L51.7653 21.3655Z" fill="white"/>
<path d="M67.5438 24.6462C66.6448 25.0436 65.7231 25.2017 64.7788 25.1206C63.8396 25.0261 62.9816 24.7018 62.2049 24.1477C61.4334 23.5803 60.8387 22.8238 60.4208 21.8785C60.0029 20.9331 59.8459 19.9888 59.9497 19.0455C60.0627 18.0981 60.4024 17.25 60.9688 16.5011C61.5404 15.7388 62.2756 15.159 63.1747 14.7616C64.083 14.3601 65.0067 14.2066 65.9459 14.3011C66.8902 14.3823 67.7461 14.702 68.5136 15.2601C69.281 15.8183 69.8737 16.5701 70.2915 17.5155C70.7094 18.4608 70.8685 19.4098 70.7688 20.3623C70.665 21.3056 70.3274 22.1584 69.7558 22.9207C69.1894 23.6696 68.4521 24.2448 67.5438 24.6462ZM66.9355 23.2699C67.575 22.9872 68.0815 22.5916 68.455 22.0831C68.8244 21.5653 69.0293 20.9761 69.0697 20.3157C69.1153 19.6418 68.9804 18.9481 68.665 18.2344C68.3495 17.5208 67.9293 16.9587 67.4044 16.5481C66.8887 16.1334 66.3172 15.8931 65.6897 15.827C65.0622 15.7609 64.4287 15.8692 63.7892 16.1518C63.1497 16.4345 62.6432 16.8301 62.2697 17.3387C61.8962 17.8472 61.6846 18.4338 61.6349 19.0983C61.5944 19.7588 61.7319 20.4458 62.0474 21.1595C62.3628 21.8732 62.7804 22.442 63.3002 22.8659C63.8251 23.2764 64.4034 23.5194 65.035 23.5948C65.6624 23.6609 66.2959 23.5526 66.9355 23.2699Z" fill="white"/>
<path d="M88.9484 17.3639L87.2562 17.7371L80.466 11.1562L82.165 18.8599L80.4728 19.2331L78.1945 8.90212L79.8866 8.52894L86.6735 15.095L84.9779 7.40613L86.67 7.03296L88.9484 17.3639Z" fill="white"/>
</svg>
